<?xml version="1.0" encoding="UTF-8"?> <!-- Generator: Adobe Illustrator 23.0.5, SVG Export Plug-In . SVG Version: 6.00 Build 0) --> <svg xmlns="http://www.w3.org/2000/svg" xmlns:xlink="http://www.w3.org/1999/xlink" version="1.1" id="Capa_1" x="0px" y="0px" viewBox="0 0 123.3 34" style="enable-background:new 0 0 123.3 34;" xml:space="preserve"> <title>icon</title> <path d="M17.1-0.1C7.6-0.1,0,7.5,0,16.9S7.6,34,17.1,34s17.1-7.6,17.1-17.1S26.5-0.1,17.1-0.1C17.1-0.1,17.1-0.1,17.1-0.1z M19.3,19.3V18l6.1-1.6l-6.3-4L16,23.3L6,16.9l9.1-2.4v1.3L9,17.4l6.3,4l3.1-10.9l10,6.4L19.3,19.3z"></path> <g> <g> <path d="M43.6,23.3h-1.4V9.2h1.4v8.5h0.1L48,13h1.8l-4.2,4.5l4.4,5.9h-1.8l-3.7-4.9l-1,1.1L43.6,23.3z"></path> </g> <g> <path d="M61.3,17.7v1c0,2.8-1.5,4.8-4.4,4.8s-4.4-2-4.4-4.8v-1c0-2.8,1.6-4.8,4.4-4.8S61.3,14.9,61.3,17.7z M54.1,17.7v0.9 c0,2.2,1.1,3.6,2.9,3.6s2.9-1.4,2.9-3.6v-0.9c0-2.2-1.1-3.6-2.9-3.6S54.1,15.5,54.1,17.7z"></path> <path d="M72.2,14.5L72.2,14.5V9.2h1.4v14.2h-1.3v-1.6l0,0c-0.6,1.1-1.8,1.8-3.1,1.8c-2.7,0-4.1-2-4.1-4.8v-1.1 c0-2.8,1.6-4.8,4.1-4.8C70.4,12.8,71.6,13.4,72.2,14.5z M66.5,17.7v0.9c0,2.4,1.2,3.6,2.8,3.6c1.8,0,2.9-1.3,2.9-3.5v-1 c0-2.1-1.1-3.6-3-3.6C67.7,14.1,66.5,15.3,66.5,17.7z"></path> <path d="M77.8,18.7v-1.2c0-2.7,1.5-4.7,4.2-4.7s4.2,1.9,4.2,4.8v0.9h-6.9v0.2c0,2.1,1,3.5,2.8,3.5c1.1,0.1,2.1-0.6,2.4-1.7h1.5 c-0.4,1.8-2.1,3.1-4,2.9C79.4,23.5,77.8,21.6,77.8,18.7z M84.8,17.3L84.8,17.3c0-1.8-1.1-3.2-2.7-3.2s-2.7,1.4-2.7,3.2l0,0H84.8z"></path> <path d="M90.3,13h1.4v1.3h0.1c0.5-1,1.5-1.5,2.6-1.5c1.3-0.2,2.5,0.5,3,1.7h0.1c0.6-1.2,1.9-1.8,3.2-1.7c1.8-0.1,3.3,1.2,3.5,2.9 c0,0.2,0,0.4,0,0.5v7h-1.4v-6.7c0.1-1.2-0.8-2.3-2-2.4c-0.1,0-0.3,0-0.4,0c-1.3,0-2.3,1-2.4,2.3c0,0.1,0,0.2,0,0.3v6.6h-1.5v-6.6 c0.2-1.2-0.7-2.4-1.9-2.5c-0.2,0-0.3,0-0.5,0c-1.3,0-2.4,1-2.4,2.3c0,0.1,0,0.2,0,0.3v6.6h-1.4V13z"></path> <path d="M109.5,9.5c0.6,0,1,0.4,1,1s-0.4,1-1,1s-1-0.4-1-1S108.9,9.5,109.5,9.5z M108.7,13h1.4v10.3h-1.4V13z"></path> <path d="M117.6,23.5c-1.7,0.2-3.2-1.1-3.4-2.8c0-0.1,0-0.2,0-0.4c0-1.8,1.3-2.9,3.6-2.9h2.8v-1.1c0.1-1.1-0.7-2.1-1.9-2.2 c-0.2,0-0.3,0-0.5,0c-1.4,0-2.2,0.7-2.3,1.8h-1.4c0.1-1.8,1.3-3,3.8-3c2.2,0,3.7,1.2,3.7,3.3v7.2h-1.4V22l0,0 C120,23,118.8,23.6,117.6,23.5z M120.6,19.9v-1.3h-2.8c-1.5,0-2.2,0.7-2.2,1.7c0,1.1,1,2,2.1,1.9c0.1,0,0.2,0,0.2,0 C119.4,22.4,120.5,21.4,120.6,19.9C120.6,20,120.6,19.9,120.6,19.9L120.6,19.9z"></path> </g> </g> <rect x="114.8" y="26.2" width="8.5" height="0.8"></rect> </svg> 